<svg width="48" height="48" viewBox="0 0 48 48" fill="none" xmlns="http://www.w3.org/2000/svg">
  <path d="M24 1.00001C10.752 1.00001 0 11.7413 0 25C0 35.6027 6.88 44.5947 16.416 47.7733C17.6107 47.9973 18.0587 47.2507 18.0587 46.6213C18.0587 46.0453 18.0373 44.1573 18.0267 42.152C11.3493 43.6027 9.94133 39.3253 9.94133 39.3253C8.85333 36.552 7.27467 35.816 7.27467 35.816C5.09867 34.3227 7.43467 34.3547 7.43467 34.3547C9.84533 34.5253 11.1147 36.8293 11.1147 36.8293C13.2587 40.4987 16.7253 39.432 18.1013 38.824C18.3147 37.2773 18.9333 36.2107 19.6267 35.6133C14.2933 35.0053 8.69333 32.9467 8.69333 23.752C8.69333 21.128 9.632 18.9947 11.168 17.3093C10.9227 16.7013 10.1013 14.2693 11.4027 10.9627C11.4027 10.9627 13.4187 10.3227 18.0053 13.4267C19.9147 12.8933 21.9733 12.6267 24.0107 12.616C26.048 12.6267 28.1067 12.8933 30.0267 13.4267C34.6027 10.3227 36.6187 10.9627 36.6187 10.9627C37.92 14.2693 37.1093 16.712 36.8533 17.3093C38.3893 18.984 39.3173 21.128 39.3173 23.752C39.3173 32.968 33.7067 34.9947 28.3627 35.592C29.2267 36.3387 29.9947 37.8 29.9947 40.04C29.9947 43.2507 29.9627 45.832 29.9627 46.6213C29.9627 47.2613 30.3893 48.008 31.616 47.7733C41.1307 44.584 48 35.592 48 24.9893C48 11.7413 37.2587 0.989341 24 1.00001Z" fill="currentColor"/>
</svg>
