<svg width="48" height="48" viewBox="0 0 48 48" fill="none" xmlns="http://www.w3.org/2000/svg">
  <path fill-rule="evenodd" clip-rule="evenodd" d="M17.0601 39.6324H2.8039C1.30444 39.6324 0.624678 38.9776 0.304791 38.4278C-0.394961 37.2182 0.309789 35.8537 0.454738 35.5938L17.5287 5.57444C18.2684 4.2749 19.1781 4 19.8129 4C21.2174 4 22.0321 5.30954 22.167 5.55445L26.9903 14.0514L28.8046 10.8727C29.5443 9.57313 30.454 9.30322 31.0888 9.30322C32.4983 9.30322 33.308 10.6178 33.4529 10.8777L47.483 35.5939C48.2377 36.8834 48.0128 37.8081 47.6979 38.3579C46.9881 39.5675 45.4587 39.6325 45.1538 39.6325H36.8967C37.1629 39.6325 38.402 39.5813 39.1734 38.7237C38.4018 39.5813 37.1613 39.6324 36.8817 39.6324H17.0888C17.0792 39.6324 17.0696 39.6324 17.0601 39.6324ZM39.7057 36.8235H44.9839L31.1038 12.4671L28.6096 16.8817L28.6147 16.8905L39.2459 35.5939C39.4721 35.9726 39.6279 36.3892 39.7057 36.8234C39.7057 36.8234 39.7057 36.8235 39.7057 36.8235ZM25.3809 16.8816L19.8529 7.16388L2.99884 36.8234H14.3397C14.4046 36.393 14.5433 35.9771 14.7496 35.5939L25.3758 16.8905L25.3809 16.8816ZM36.7068 36.8234L26.9902 19.7295L17.2787 36.8234H36.7068Z" fill="currentColor"/>
</svg>