<svg width="48" height="48" viewBox="0 0 48 48" fill="none" xmlns="http://www.w3.org/2000/svg">
  <path fill-rule="evenodd" clip-rule="evenodd" d="M33.675 0.460258L33.4488 5.89996C33.4453 5.98359 33.4711 6.06581 33.5217 6.13249C33.6419 6.29089 33.8677 6.3219 34.0261 6.20174L36.1391 4.59886L37.9238 6.00479C37.9907 6.05747 38.0741 6.08475 38.1592 6.08178C38.3579 6.07484 38.5133 5.90813 38.5064 5.70943L38.313 0.170386L40.9626 0.00478164C42.2929 -0.0783584 43.4386 0.932617 43.5218 2.26286C43.5249 2.31298 43.5265 2.36318 43.5265 2.4134V45.5867C43.5265 46.9195 42.446 48 41.1132 48C41.0771 48 41.041 47.9992 41.0049 47.9976L8.79201 46.5508C7.53744 46.4944 6.53577 45.4854 6.48867 44.2304L5.00173 4.61014C4.95262 3.30164 5.95593 2.1927 7.26281 2.11102L33.675 0.460258ZM34.7035 17.9212C33.8545 18.5808 27.5301 19.0308 27.5301 18.0919C27.6637 14.5091 26.0597 14.3521 25.1686 14.3521C24.3221 14.3521 22.8963 14.608 22.8963 16.5273C22.8963 18.4832 24.9799 19.5873 27.4255 20.8834C30.8997 22.7245 35.1045 24.9527 35.1045 30.5597C35.1045 35.9338 30.7381 38.9024 25.1686 38.9024C19.421 38.9024 14.3981 36.577 14.9654 28.5149C15.1882 27.5682 22.4953 27.7932 22.4953 28.5149C22.4062 31.8418 23.1636 32.8202 25.0795 32.8202C26.5498 32.8202 27.2182 32.0098 27.2182 30.645C27.2182 28.5794 25.0472 27.3606 22.5498 25.9584C19.1683 24.0599 15.1882 21.8253 15.1882 16.6979C15.1882 11.5797 18.7081 8.16757 24.9904 8.16757C31.2727 8.16757 34.7035 11.5274 34.7035 17.9212Z" fill="currentColor"/>
</svg>
